<?xml version="1.0" encoding="UTF-8"?>
<!DOCTYPE svg PUBLIC "-//W3C//DTD SVG 1.1//EN" "http://www.w3.org/Graphics/SVG/1.1/DTD/svg11.dtd">
<!-- Creator: CorelDRAW 2018 (64 Bit Versão de avaliação) -->
<svg xmlns="http://www.w3.org/2000/svg" xml:space="preserve" width="150mm" height="100mm" version="1.1" style="shape-rendering:geometricPrecision; text-rendering:geometricPrecision; image-rendering:optimizeQuality; fill-rule:evenodd; clip-rule:evenodd"
viewBox="0 0 15000 10000"
 xmlns:xlink="http://www.w3.org/1999/xlink">
 <defs>
  <style type="text/css">
   <![CDATA[
    .fil0 {fill:#FEFEFE;fill-rule:nonzero}
    .fil2 {fill:#1A244F;fill-rule:nonzero}
    .fil1 {fill:#1AC5DB;fill-rule:nonzero}
   ]]>
  </style>
 </defs>
 <g id="Camada_x0020_1">
  <metadata id="CorelCorpID_0Corel-Layer"/>
  <g id="_2356212315008">
   <path class="fil0" d="M8654.57 5203.68c-38.62,-7.04 -42.79,-29.65 -92.1,-76.43 -49.32,-46.79 -249.95,-309.76 -249.95,-309.76 0,0 -108.86,135.35 -282.89,295.41l-54 48.85c0,0 12.23,113.27 -28.66,239.67l1.37 0.78c177.42,102.44 396,102.44 573.41,0l352.81 -203.68c-179.54,9.56 -214.34,6.18 -219.99,5.16z"/>
   <path class="fil1" d="M8484.58 3987.05c32.61,-58.48 107.3,-224.95 107.3,-224.95l35.61 -109.67c0,0 -64.87,1.38 -211.98,-28.04l-4.04 436.77c0,0 40.49,-15.64 73.11,-74.11z"/>
   <path class="fil1" d="M8788.65 4988.04c0,0 154.02,-47.64 365.94,46.22 0.86,0.37 1.67,0.74 2.52,1.12l169.57 -97.9c38.02,-21.95 72.69,-48.09 104.04,-77.33l-707.94 0c39.07,82.48 65.87,127.89 65.87,127.89z"/>
   <path class="fil0" d="M8091.85 4451.18c0,0 -30.43,-122.01 -31.42,-128.14 -6.83,-42.52 -64.2,-239.65 -64.2,-239.65 0,0 -166.26,-90.27 -265.2,-148.48 -98.94,-58.2 -98.58,-50.36 -100.78,-97.4l12.89 -18.27c0,0 2.64,-27.61 23.83,-36.46 3.58,-1.5 6.11,-2.52 7.94,-3.24 1.15,-5.2 8.13,-32.49 27.82,-29.86 21.73,2.93 84.22,37.31 91.66,70.34 7.43,33.04 -27.1,50.36 30.64,67.3 57.74,16.93 137.21,36.77 137.21,36.77 0,0 -47.51,-186.65 -43.98,-279.11 3.53,-92.46 26.4,-117.7 49.58,-167.89 23.18,-50.17 -13.42,-94.15 -30.81,-91.83 -22.45,3.01 -39.16,3.81 -50.4,5.22 -35.99,4.52 -58.61,-5.07 -63.99,-24.28 -7.08,-25.2 -8.42,-35.08 -8.42,-35.08l-15.22 -42.01c0,0 -33.1,5.97 -39.35,-1.59 -6.24,-7.56 29.39,-43.59 29.7,-78.95 0.3,-35.36 -16,-42.44 -16,-42.44 0,0 -17.38,-70.89 -15.45,-112.55 2.94,-63.26 129.46,-157.41 260.21,-117.86 53.26,16.1 78.96,61.71 93.75,106.09l1256.67 0c-13.54,-9.47 -27.38,-18.61 -41.85,-26.96l-804.93 -464.72c-88.71,-51.22 -187.7,-76.83 -286.7,-76.83 -99,0 -198,25.61 -286.71,76.83l-804.93 464.72c-177.42,102.42 -286.71,291.73 -286.71,496.58l0 929.46c0,204.86 109.29,394.16 286.71,496.59l570.05 329.11c9.29,-60.82 14.07,-105.2 14.07,-105.2 0,0 -25.84,-111.7 13.02,-162.6 38.85,-50.92 278.88,-416.58 351.3,-547.61z"/>
   <path class="fil1" d="M8124.69 3207.56l614.47 0c13.48,0 24.52,11.03 24.52,24.52 0,13.48 -11.04,24.52 -24.52,24.52l-618.14 0c-0.14,6.04 0.11,10.5 1.08,12.99 33.11,85.76 47.33,103.36 93.83,95.76 45.19,-7.4 82.25,-5.98 113.79,0.11l1264.68 0c-24.41,-92.66 -71.79,-177.55 -137.38,-247.15l-1330.97 0c2.21,32.3 0.61,63.49 -1.36,89.25z"/>
   <path class="fil1" d="M9608.99 3441.97l-1103.19 0c83.91,28.34 256.84,72.18 317.19,128.48l318.29 0c13.48,0 24.51,11.03 24.51,24.52 0,13.48 -11.03,24.51 -24.51,24.51l-311.7 0c-7.54,21.68 -21.19,51.91 -45.17,81.56 -1.95,2.41 -4.23,5.42 -6.67,8.67l835.64 0 0 -198.28c0,-23.41 -1.59,-46.57 -4.39,-69.46z"/>
   <path class="fil1" d="M8630.12 3935.29l826.97 0c13.48,0 24.51,11.04 24.51,24.52 0,13.48 -11.03,24.52 -24.51,24.52l-857.68 0c-21.92,35.15 -36.6,58.95 -36.6,58.95 0,0 -0.62,14.4 -3.45,34.23l1054.02 0 0 -291.3 -887.94 0c-30.15,45.95 -65.37,101.43 -95.32,149.08z"/>
   <path class="fil1" d="M8539.3 4152.01c-6.8,14.62 -15.5,27.25 -26.71,35.01 -45.66,31.58 -70.13,16.53 -64.79,42.29 3.92,18.92 8.73,34.87 14.1,49.25l604.84 0c13.48,0 24.52,11.04 24.52,24.53 0,13.48 -11.04,24.51 -24.52,24.51l-582 0c15.46,28.37 32.67,55.6 48.57,97.1l1080.07 0 0 -270.69 -1062.52 0c-4.05,0 -7.89,-0.82 -11.56,-2z"/>
   <path class="fil1" d="M8543.33 4560.64c0,0 17.13,25.89 41.01,63.15l237.21 0c13.48,0 24.51,11.04 24.51,24.52 0,13.49 -11.03,24.52 -24.51,24.52l-206.11 0c22.46,35.81 46.66,75.33 67.05,110.82l816.96 0c60.94,-81.72 99.54,-179.08 110.45,-282.46l-1062.25 0c-0.04,31.26 -4.32,59.45 -4.32,59.45z"/>
   <path class="fil2" d="M8654.57 5203.68c-38.62,-7.04 -42.79,-29.65 -92.1,-76.43 -49.32,-46.79 -249.95,-309.76 -249.95,-309.76 0,0 -108.86,135.35 -282.89,295.41l-54 48.85c0,0 12.23,113.27 -28.66,239.67l1.37 0.78c177.42,102.44 396,102.44 573.41,0l352.81 -203.68c-179.54,9.56 -214.34,6.18 -219.99,5.16z"/>
   <path class="fil2" d="M8484.58 3987.05c32.61,-58.48 107.3,-224.95 107.3,-224.95l35.61 -109.67c0,0 -64.87,1.38 -211.98,-28.04l-4.04 436.77c0,0 40.49,-15.64 73.11,-74.11z"/>
   <path class="fil2" d="M8788.65 4988.04c0,0 154.02,-47.64 365.94,46.22 0.86,0.37 1.67,0.74 2.52,1.12l169.57 -97.9c38.02,-21.95 72.69,-48.09 104.04,-77.33l-707.94 0c39.07,82.48 65.87,127.89 65.87,127.89z"/>
   <path class="fil2" d="M8091.85 4451.18c0,0 -30.43,-122.01 -31.42,-128.14 -6.83,-42.52 -64.2,-239.65 -64.2,-239.65 0,0 -166.26,-90.27 -265.2,-148.48 -98.94,-58.2 -98.58,-50.36 -100.78,-97.4l12.89 -18.27c0,0 2.64,-27.61 23.83,-36.46 3.58,-1.5 6.11,-2.52 7.94,-3.24 1.15,-5.2 8.13,-32.49 27.82,-29.86 21.73,2.93 84.22,37.31 91.66,70.34 7.43,33.04 -27.1,50.36 30.64,67.3 57.74,16.93 137.21,36.77 137.21,36.77 0,0 -47.51,-186.65 -43.98,-279.11 3.53,-92.46 26.4,-117.7 49.58,-167.89 23.18,-50.17 -13.42,-94.15 -30.81,-91.83 -22.45,3.01 -39.16,3.81 -50.4,5.22 -35.99,4.52 -58.61,-5.07 -63.99,-24.28 -7.08,-25.2 -8.42,-35.08 -8.42,-35.08l-15.22 -42.01c0,0 -33.1,5.97 -39.35,-1.59 -6.24,-7.56 29.39,-43.59 29.7,-78.95 0.3,-35.36 -16,-42.44 -16,-42.44 0,0 -17.38,-70.89 -15.45,-112.55 2.94,-63.26 129.46,-157.41 260.21,-117.86 53.26,16.1 78.96,61.71 93.75,106.09l1256.67 0c-13.54,-9.47 -27.38,-18.61 -41.85,-26.96l-804.93 -464.72c-88.71,-51.22 -187.7,-76.83 -286.7,-76.83 -99,0 -198,25.61 -286.71,76.83l-804.93 464.72c-177.42,102.42 -286.71,291.73 -286.71,496.58l0 929.46c0,204.86 109.29,394.16 286.71,496.59l570.05 329.11c9.29,-60.82 14.07,-105.2 14.07,-105.2 0,0 -25.84,-111.7 13.02,-162.6 38.85,-50.92 278.88,-416.58 351.3,-547.61z"/>
   <path class="fil2" d="M8124.69 3207.56l614.47 0c13.48,0 24.52,11.03 24.52,24.52 0,13.48 -11.04,24.52 -24.52,24.52l-618.14 0c-0.14,6.04 0.11,10.5 1.08,12.99 33.11,85.76 47.33,103.36 93.83,95.76 45.19,-7.4 82.25,-5.98 113.79,0.11l1264.68 0c-24.41,-92.66 -71.79,-177.55 -137.38,-247.15l-1330.97 0c2.21,32.3 0.61,63.49 -1.36,89.25z"/>
   <path class="fil2" d="M9608.99 3441.97l-1103.19 0c83.91,28.34 256.84,72.18 317.19,128.48l318.29 0c13.48,0 24.51,11.03 24.51,24.52 0,13.48 -11.03,24.51 -24.51,24.51l-311.7 0c-7.54,21.68 -21.19,51.91 -45.17,81.56 -1.95,2.41 -4.23,5.42 -6.67,8.67l835.64 0 0 -198.28c0,-23.41 -1.59,-46.57 -4.39,-69.46z"/>
   <path class="fil2" d="M8630.12 3935.29l826.97 0c13.48,0 24.51,11.04 24.51,24.52 0,13.48 -11.03,24.52 -24.51,24.52l-857.68 0c-21.92,35.15 -36.6,58.95 -36.6,58.95 0,0 -0.62,14.4 -3.45,34.23l1054.02 0 0 -291.3 -887.94 0c-30.15,45.95 -65.37,101.43 -95.32,149.08z"/>
   <path class="fil2" d="M8539.3 4152.01c-6.8,14.62 -15.5,27.25 -26.71,35.01 -45.66,31.58 -70.13,16.53 -64.79,42.29 3.92,18.92 8.73,34.87 14.1,49.25l604.84 0c13.48,0 24.52,11.04 24.52,24.53 0,13.48 -11.04,24.51 -24.52,24.51l-582 0c15.46,28.37 32.67,55.6 48.57,97.1l1080.07 0 0 -270.69 -1062.52 0c-4.05,0 -7.89,-0.82 -11.56,-2z"/>
   <path class="fil2" d="M8543.33 4560.64c0,0 17.13,25.89 41.01,63.15l237.21 0c13.48,0 24.51,11.04 24.51,24.52 0,13.49 -11.03,24.52 -24.51,24.52l-206.11 0c22.46,35.81 46.66,75.33 67.05,110.82l816.96 0c60.94,-81.72 99.54,-179.08 110.45,-282.46l-1062.25 0c-0.04,31.26 -4.32,59.45 -4.32,59.45z"/>
  </g>
 </g>
</svg>
